<svg id="Layer_1" data-name="Layer 1" xmlns="http://www.w3.org/2000/svg" viewBox="0 0 26.76 17.1"><defs><style>.cls-1{font-size:13.22px;}.cls-1,.cls-2,.cls-3{fill:#00aeef;}.cls-1,.cls-3{font-family:HelveticaCE-Bold, Helvetica;font-weight:700;}.cls-3{font-size:8.12px;}.cls-4{letter-spacing:-0.01em;}</style></defs><title>Kitch logo2</title><text class="cls-1" transform="translate(2.57 14.09) scale(1.01 1)">K</text><path class="cls-2" d="M5.55,9l.87.17c.08,0,.21,0,.23.1.14.33.26.66.4,1a4.78,4.78,0,0,0-3.34.51c0-.26-.25-.49,0-.75A1.69,1.69,0,0,1,5,9.3a4.49,4.49,0,0,0,.82,0,4.34,4.34,0,0,1-.52-.08,1.35,1.35,0,0,0-1.49.42c-.17.17-.32.35-.48.51a.91.91,0,0,1-1.4,0,1,1,0,0,1,0-1.42,1.8,1.8,0,0,1,1.49-.55V8.11L2.56,8a6.12,6.12,0,0,1,.78-1.19,1.64,1.64,0,0,1,1.79-.23,6.56,6.56,0,0,0,1.74.45c.62.08.93.43.92.94a1,1,0,0,1-1,1,4.43,4.43,0,0,1-.63,0A5.61,5.61,0,0,1,5.57,9Z" transform="translate(-1.62 -6.45)"/><path class="cls-2" d="M6.17,10.36l-2.29,1c-.13-.27-.13-.27.19-.44A4.76,4.76,0,0,1,6.17,10.36Z" transform="translate(-1.62 -6.45)"/><text class="cls-3" transform="translate(12.4 14.09)">it<tspan class="cls-4" x="4.96" y="0">c</tspan><tspan x="9.39" y="0">h</tspan></text></svg>